# AST/ASF file generated using VICON BodyLanguage
# -----------------------------------------------
:version 1.10
:name VICON
:units
  mass 1.0
  length 0.45
  angle deg
:documentation
   .ast/.asf automatically generated from VICON data using
   VICON BodyBuilder and BodyLanguage model FoxedUp or BRILLIANT.MOD
:root
   order TX TY TZ RX RY RZ
   axis XYZ
   position 0 0 0  
   orientation 0 0 0 
:bonedata
  begin
     id 1 
     name lhipjoint
     direction 0.714689 -0.624256 0.315473 
     length 2.45343 
     axis 0 0 0  XYZ
  end
  begin
     id 2 
     name lfemur
     direction 0.34202 -0.939693 0  
     length 6.59069  
     axis 0 0 20  XYZ
    dof rx ry rz
    limits (-160.0 20.0)
           (-70.0 70.0)
           (-60.0 70.0)
  end
  begin
     id 3 
     name ltibia
     direction 0.34202 -0.939693 0   
     length 6.73476   
     axis 0 0 20   XYZ
    dof rx
    limits (-10.0 170.0)
  end
  begin
     id 4 
     name lfoot
     direction 0.0718085 -0.197292 0.977711   
     length 1.52607   
     axis -90 7.62852e-016 20   XYZ
    dof rx rz
    limits (-45.0 90.0)
           (-70.0 20.0)
  end
  begin
     id 5 
     name ltoes
     direction 1.53553e-011 -4.22024e-011 1   
     length 0.777832   
     axis -90 7.62852e-016 20   XYZ
    dof rx
    limits (-90.0 20.0)
  end
  begin
     id 6 
     name rhipjoint
     direction -0.727419 -0.612432 0.309497   
     length 2.50079  
     axis 0 0 0  XYZ 
  end
  begin
     id 7 
     name rfemur
     direction -0.34202 -0.939693 0   
     length 6.51665   
     axis 0 0 -20   XYZ
    dof rx ry rz
    limits (-160.0 20.0)
           (-70.0 70.0)
           (-70.0 60.0)
  end
  begin
     id 8 
     name rtibia
     direction -0.34202 -0.939693 0   
     length 6.48919   
     axis 0 0 -20   XYZ
    dof rx
    limits (-10.0 170.0)
 end
 begin
     id 9 
     name rfoot
     direction -0.112205 -0.308282 0.944655   
     length 1.68717  
     axis -90 -7.62852e-016 -20   XYZ
    dof rx rz
    limits (-45.0 90.0)
           (-20.0 70.0)
  end
  begin
     id 10 
     name rtoes
     direction -1.53583e-011 -4.21993e-011 1   
     length 0.846859   
     axis -90 -7.62852e-016 -20   XYZ
    dof rx
    limits (-90.0 20.0)
  end
  begin
     id 11 
     name lowerback
     direction -0.00119603 0.996364 -0.0851956   
     length 1.67242   
     axis 0 0 0   XYZ
    dof rx ry rz
    limits (-20.0 45.0)
           (-30.0 30.0)
           (-30.0 30.0)
  end
  begin
     id 12 
     name upperback
     direction -0.00531001 0.998318 0.0577248   
     length 1.64819   
     axis 0 0 0   XYZ
    dof rx ry rz
    limits (-20.0 45.0)
           (-30.0 30.0)
           (-30.0 30.0)
  end
  begin
     id 13 
     name thorax
     direction -0.00653676 0.995132 0.0983291   
     length 1.67429   
     axis 0 0 0   XYZ
    dof rx ry rz
    limits (-20.0 45.0)
           (-30.0 30.0)
           (-30.0 30.0)
  end
  begin
     id 14 
     name lowerneck
     direction 0.0141424 0.999886 0.00525412   
     length 1.59623   
     axis 0 0 0   XYZ
    dof rx ry rz
    limits (-20.0 45.0)
           (-30.0 30.0)
           (-30.0 30.0)
  end
  begin
     id 15 
     name upperneck
     direction -0.0640064 0.987178 -0.146232   
     length 1.59576   
     axis 0 0 0   XYZ
    dof rx ry rz
    limits (-20.0 45.0)
           (-30.0 30.0)
           (-30.0 30.0)
  end
  begin
     id 16
     name head
     direction -0.0222942 0.998496 -0.0500859  
     length 1.60959  
     axis 0 0 0   XYZ
    dof rx ry rz
    limits (-20.0 45.0)
           (-30.0 30.0)
           (-30.0 30.0)
  end
  begin
     id 17 
     name lclavicle
     direction 0.908549 0.392612 0.142806  
     length 2.80649  
     axis 0 0 0   XYZ
    dof ry rz
    limits (-20.0 10.0)
           (0.0 20.0)
  end
  begin
     id 18 
     name lhumerus
     direction 1 -4.48968e-011 1.08832e-028   
     length 4.2884   
     axis -180 -30 -90   XYZ
    dof rx ry rz
    limits (-60.0 90.0)
           (-90.0 90.0)
           (-90.0 90.0)
  end
  begin
     id 19
     name lradius
     direction 1 -4.48952e-011 -3.02642e-028   
     length 3.06552   
     axis -180 -30 -90   XYZ
    dof rx
    limits (-10.0 170.0)
  end
  begin
     id 20
     name lwrist
     direction 1 -4.49014e-011 1.58672e-027   
     length 1.53276   
     axis -1.65735e-015 90 90   XYZ
    dof ry
    limits (-180.0 0.0)
 end
  begin
     id 21 
     name lhand
     direction 1 -4.48928e-011 3.17344e-027   
     length 0.753045   
     axis -2.02492e-015 90 90   XYZ
    dof rx rz
    limits (-90.0 90.0)
           (-45.0 45.0)
  end
  begin
     id 22 
     name lfingers
     direction 1 -4.48958e-011 6.34687e-027   
     length 0.607124   
     axis -4.04985e-015 90 90   XYZ
    dof rx
    limits (0.0 90.0)
  end
  begin
     id 23
     name lthumb
     direction 0.707107 -6.34905e-011 0.707107   
     length 0.871712   
     axis -90 45 2.85299e-015   XYZ
    dof rx rz
    limits (-45.0 45.0)
           (-45.0 45.0)
  end
  begin
     id 24 
     name rclavicle
     direction -0.885098 0.45949 0.0739604   
     length 2.9478  
     axis 0 0 0   XYZ 
    dof ry rz
    limits (-10.0 20.0)
           (-20.0 0.0)
  end
  begin
     id 25 
     name rhumerus
     direction -1 -4.4898e-011 -2.61739e-027  
     length 4.52172   
     axis -180 30 90   XYZ
    dof rx ry rz
    limits (-90.0 60.0)
           (-90.0 90.0)
           (-90.0 90.0)
  end
  begin
     id 26 
     name rradius
     direction -1 -4.48945e-011 9.02552e-028   
     length 2.8914   
     axis -180 30 90   XYZ
    dof rx
    limits (-10.0 170.0)
  end
  begin
     id 27 
     name rwrist
     direction -1 -4.49018e-011 1.58672e-027   
     length 1.4457   
     axis -1.65735e-015 -90 -90   XYZ
    dof ry
    limits (-180.0 0.0)
  end
  begin
     id 28
     name rhand
     direction -1 -4.48825e-011 3.17344e-027   
     length 0.680541   
     axis -2.02492e-015 -90 -90   XYZ
    dof rx rz
    limits (-90.0 90.0)
           (-45.0 45.0)
  end
  begin
     id 29
     name rfingers
     direction -1 -4.49067e-011 6.34687e-027   
     length 0.54867   
     axis -4.04985e-015 -90 -90   XYZ
    dof rx
    limits (0.0 90.0)
  end
  begin
     id 30
     name rthumb
     direction -0.707107 -6.34833e-011 0.707107   
     length 0.787783   
     axis -90 -45 -2.85299e-015   XYZ
    dof rx rz
    limits (-45.0 45.0)
           (-45.0 45.0)
  end
:hierarchy
  begin
    root lhipjoint rhipjoint lowerback
    lhipjoint lfemur
    lfemur ltibia
    ltibia lfoot
    lfoot ltoes
    rhipjoint rfemur
    rfemur rtibia
    rtibia rfoot
    rfoot rtoes
    lowerback upperback
    upperback thorax
    thorax lowerneck lclavicle rclavicle
    lowerneck upperneck
    upperneck head
    lclavicle lhumerus
    lhumerus lradius
    lradius lwrist
    lwrist lhand lthumb
    lhand lfingers
    rclavicle rhumerus
    rhumerus rradius
    rradius rwrist
    rwrist rhand rthumb
    rhand rfingers
  end

#!OML:ASF E:\emotionWalksFemale\Project 1\Capture day 1\Session 1\Female1.ASF
:FULLY-SPECIFIED
:DEGREES
290
root 8.00686 14.9123 41.5819 180.637 -3.50173 176.172
lowerback 5.67213 1.22861 -1.8223
upperback -2.33803 1.41289 -1.01146
thorax -5.63215 0.731769 -0.17532
lowerneck -3.01692 -2.90457 -9.69571
upperneck 19.4594 -6.0258 8.56476
head 6.92654 -3.47108 3.92364
rclavicle 2.93456e-014 -3.57812e-015
rhumerus -46.5289 14.128 -96.4196
rradius 32.4963
rwrist 13.4172
rhand -8.52591 -54.042
rfingers 7.12502
rthumb 17.4028 -83.283
lclavicle 2.93456e-014 -3.57812e-015
lhumerus -41.6954 -10.0657 93.0496
lradius 37.8276
lwrist -15.8068
lhand -2.49657 -33.4504
lfingers 7.12502
lthumb 23.197 -4.82732
rfemur -11.6296 9.37019 18.0001
rtibia 41.5895
rfoot -29.5015 -22.8341
rtoes -0.521451
lfemur -7.95921 -16.4095 -32.202
ltibia 30.9769
lfoot -26.881 12.165
ltoes -18.4005
291
root 7.99135 14.9105 41.5811 180.755 -3.35833 176.164
lowerback 5.62533 1.24226 -1.77049
upperback -2.40942 1.43175 -1.038
thorax -5.67858 0.738258 -0.233952
lowerneck -2.99402 -2.93861 -9.62332
upperneck 19.414 -6.05647 8.46688
head 6.90664 -3.48665 3.87666
rclavicle 1.74185e-014 1.98785e-015
rhumerus -46.6301 13.9488 -96.3939
rradius 32.5002
rwrist 13.3163
rhand -8.51217 -54.1264
rfingers 7.12502
rthumb 17.416 -83.3662
lclavicle 1.74185e-014 1.98785e-015
lhumerus -41.7924 -9.97001 92.9217
lradius 37.8538
lwrist -16.1279
lhand -2.68951 -33.9829
lfingers 7.12502
lthumb 23.0119 -5.33658
rfemur -11.8426 9.54453 17.9249
rtibia 41.7068
rfoot -29.7897 -22.8009
rtoes -0.441242
lfemur -8.05269 -16.4951 -32.2536
ltibia 30.9032
lfoot -26.9426 12.0095
ltoes -17.4853
292
root 7.97562 14.9095 41.5765 180.784 -3.15845 176.104
lowerback 5.6214 1.24501 -1.90041
upperback -2.42103 1.42702 -0.998048
thorax -5.69303 0.741572 -0.119319
lowerneck -3.1315 -2.95235 -9.55539
upperneck 19.4687 -6.03528 8.29555
head 6.94079 -3.47876 3.80797
rclavicle -3.57812e-015 2.98177e-015
rhumerus -46.6342 13.7772 -96.2129
rradius 32.4963
rwrist 13.4364
rhand -8.49127 -53.9696
rfingers 7.12502
rthumb 17.4361 -83.2076
lclavicle -3.57812e-015 2.98177e-015
lhumerus -41.8001 -9.8939 92.9132
lradius 37.8415
lwrist -16.1437
lhand -2.752 -34.028
lfingers 7.12502
lthumb 22.952 -5.37426
rfemur -11.9486 9.601 17.772
rtibia 41.8085
rfoot -29.9498 -22.6257
rtoes -0.803984
lfemur -8.01602 -16.5152 -32.4041
ltibia 30.8197
lfoot -26.9029 11.9955
ltoes -16.9112
293
root 7.95948 14.9086 41.5742 180.86 -2.9887 175.972
lowerback 5.50631 1.23475 -2.09902
upperback -2.39608 1.40367 -0.953807
thorax -5.60721 0.737678 0.0434206
lowerneck -3.23788 -2.91751 -9.70166
upperneck 19.4809 -5.96883 8.35868
head 6.96309 -3.44752 3.8573
rclavicle 1.66979e-014 1.2921e-014
rhumerus -46.5751 13.5168 -95.8983
rradius 32.5057
rwrist 13.7175
rhand -8.55387 -53.8015
rfingers 7.12502
rthumb 17.3758 -83.0449
lclavicle 1.66979e-014 1.2921e-014
lhumerus -41.6051 -9.79927 92.9907
lradius 37.6365
lwrist -16.0823
lhand -2.87318 -33.7205
lfingers 7.12502
lthumb 22.8357 -5.05241
rfemur -12.0781 9.65871 17.5231
rtibia 41.8673
rfoot -29.9242 -22.7371
rtoes -1.24126
lfemur -8.05784 -16.497 -32.6147
ltibia 30.7767
lfoot -26.8479 12.1555
ltoes -16.8846
294
root 7.94302 14.9078 41.5732 180.945 -2.90867 176.011
lowerback 5.4039 1.19946 -2.02209
upperback -2.38574 1.3675 -0.932423
thorax -5.53566 0.717371 0.0287914
lowerneck -3.46256 -2.9368 -9.71258
upperneck 19.5913 -5.97197 8.32351
head 7.03873 -3.44592 3.84389
rclavicle 2.12203e-014 9.74045e-015
rhumerus -46.4807 13.3075 -95.7394
rradius 32.481
rwrist 13.7218
rhand -8.57808 -54.0547
rfingers 7.12502
rthumb 17.3525 -83.3001
lclavicle 2.12203e-014 9.74045e-015
lhumerus -41.5031 -9.72404 93.001
lradius 37.5779
lwrist -16.1181
lhand -3.06424 -33.5688
lfingers 7.12502
lthumb 22.6523 -4.8782
rfemur -12.1875 9.8174 17.4882
rtibia 41.9064
rfoot -29.9313 -23.0571
rtoes -1.59567
lfemur -8.14185 -16.5106 -32.6291
ltibia 30.7478
lfoot -26.8175 12.2843
ltoes -17.2149
